<?xml version="1.0" encoding="utf-8"?>
<!-- Generator: Adobe Illustrator 19.1.0, SVG Export Plug-In . SVG Version: 6.00 Build 0)  -->
<svg version="1.1" id="Layer_1" xmlns="http://www.w3.org/2000/svg" xmlns:xlink="http://www.w3.org/1999/xlink" x="0px" y="0px"
	 viewBox="0 0 84.1 25" style="enable-background:new 0 0 84.1 25;" xml:space="preserve">
<style type="text/css">
	.st0{fill:#FFFFFF;}
</style>
<g>
	<path class="st0" d="M78.6,7h-1.3V5.6c0-2-1.1-3.9-2.9-4.9C73.6,0.2,72.6,0,71.7,0H54.9c-1.2,0-2.4,0.4-3.4,1.2
		c-0.7,0.5-1.2,1.1-1.6,1.8l0,0l0,0l-2.3,4.3c0,0-2.7-5.3-3.5-5.9C43,0.5,41.7,0,40.4,0c-0.8,0-1.7,0.2-2.4,0.6
		c-1.5,0.7-2.3,2-2.9,3.5l-1.8,3.3l-2.1-4.2c-0.6-1.1-1.5-2-2.6-2.6C27.7,0.2,26.9,0,26,0H12.4c-0.9,0-1.8,0.2-2.7,0.7
		C8,1.6,6.9,3.5,6.9,5.6V7H5.6C2.5,7,0,9.5,0,12.6s2.5,5.6,5.6,5.6h1.3v1.3c0,3.1,2.5,5.6,5.6,5.6c3.1,0,5.6-2.5,5.6-5.6v-1.3h4.9
		c1.1,0,2.1-0.3,2.9-0.8l2.2,4.3c0.1,0.2,0.2,0.5,0.4,0.7c1,1.7,2.8,2.7,4.8,2.7c0.8,0,1.7-0.2,2.4-0.6c1.4-0.7,2.5-1.8,3.1-3.2
		l1.6-3.5l2,3.9c0.1,0.2,0.2,0.5,0.4,0.7c1,1.7,2.8,2.7,4.8,2.7c0.8,0,1.7-0.2,2.4-0.5c1.3-0.6,2.3-1.7,2.8-3c0.8,2,2.8,3.5,5.2,3.5
		l14,0c3.1,0,5.6-2.4,5.6-5.5v-1.3h1.3c3.1,0,5.6-2.5,5.6-5.6S81.6,7,78.6,7z M78.6,14.4h-5v4.9c0,1-0.8,1.8-1.8,1.8
		c-0.2,0-14,0-14,0c-1,0-1.8-0.8-1.8-1.8v-6.8h0c0-1,0.8-1.7,1.8-1.7h12.2V7.4h-14l-6.7,12.4c-0.1,0.5-0.5,1-1,1.3
		c-0.3,0.1-0.5,0.2-0.8,0.2c-0.6,0-1.2-0.3-1.6-0.9c-0.1-0.1-0.1-0.2-0.2-0.3L40.4,9.7l-5.3,10.1c-0.2,0.5-0.6,1-1.1,1.3
		c-0.3,0.1-0.5,0.2-0.8,0.2c-0.6,0-1.2-0.3-1.6-0.9c-0.1-0.1-0.1-0.2-0.2-0.3L25,7.4H14.2v3.4h8.7c1,0,1.8,0.8,1.8,1.8
		c0,1-0.8,1.8-1.8,1.8h-8.7v5c0,1-0.8,1.8-1.8,1.8c-1,0-1.8-0.8-1.8-1.8v-5h-5c-1,0-1.8-0.8-1.8-1.8c0-1,0.8-1.8,1.8-1.8h5V5.6v0
		c0-0.7,0.4-1.3,1-1.6c0.3-0.1,0.6-0.2,0.9-0.2H26c0.3,0,0.6,0.1,0.8,0.2c0.4,0.2,0.7,0.5,0.9,0.9l5.4,10.6l5.4-10.1
		c0.3-0.6,0.4-1,1-1.3c0.3-0.1,0.5-0.2,0.8-0.2c0.5,0,0.9,0.2,1.2,0.5c0.3,0.3,0.5,0.4,0.7,0.9l5.1,10.3l5.7-10.6
		c0.1-0.3,0.4-0.5,0.6-0.6c0.3-0.3,0.7-0.4,1.2-0.4h16.9c0.3,0,0.6,0.1,0.9,0.2c0.6,0.3,1,0.9,1,1.6v0v5.2h5c1,0,1.8,0.8,1.8,1.8
		C80.4,13.6,79.6,14.4,78.6,14.4z"/>
	<path class="st0" d="M69.9,14.5v3H59.5v-3C59.5,14.5,70,14.4,69.9,14.5z"/>
</g>
</svg>
