<?xml version="1.0" encoding="utf-8"?>
<!-- Generator: Adobe Illustrator 19.1.0, SVG Export Plug-In . SVG Version: 6.00 Build 0)  -->
<svg version="1.1" id="Layer_1" xmlns="http://www.w3.org/2000/svg" xmlns:xlink="http://www.w3.org/1999/xlink" x="0px" y="0px"
	 viewBox="0 0 208.6 25" style="enable-background:new 0 0 208.6 25;" xml:space="preserve">
<style type="text/css">
	.st0{fill:#FFFFFF;}
</style>
<g>
	<path class="st0" d="M127.3,18.4h-8.5l-2,6.2h-4.5l8.5-24.2h4.6l8.5,24.2h-4.5L127.3,18.4z M123.1,4.6c0,0-0.5,2.4-1,3.7l-2.1,6.5
		h6.3l-2.1-6.5C123.7,7,123.2,4.6,123.1,4.6L123.1,4.6z M123.1,4.6"/>
	<path class="st0" d="M140.4,0.4h7.8c2.6,0,3.8,0.2,4.9,0.7c2.4,1.1,4,3.4,4,6.6c0,2.9-1.5,5.6-4.1,6.6v0.1c0,0,0.3,0.3,0.8,1.2l5,9
		h-4.9l-4.8-9h-4.2v9h-4.4V0.4z M148.8,11.7c2.3,0,3.8-1.4,3.8-3.8c0-2.3-1-3.7-4.4-3.7h-3.3v7.6L148.8,11.7z M148.8,11.7"/>
	<g>
		<path class="st0" d="M166.2,0.4h8.2c7.5,0,12.3,4.4,12.3,12.1c0,7.6-4.9,12.1-12.3,12.1h-8.2V0.4z M174.2,20.8c4.9,0,8-2.9,8-8.3
			c0-5.4-3.2-8.3-8-8.3h-3.6v16.6H174.2z M174.2,20.8"/>
		<path class="st0" d="M194.7,18.4c0,0,2.6,2.6,6,2.6c1.8,0,3.5-1,3.5-2.9c0-4.3-11.4-3.6-11.4-11c0-4,3.5-7,8.1-7
			c4.8,0,7.2,2.6,7.2,2.6l-1.9,3.6c0,0-2.3-2.1-5.4-2.1c-2,0-3.6,1.2-3.6,2.9c0,4.3,11.4,3.2,11.4,11c0,3.9-2.9,7.1-8,7.1
			c-5.4,0-8.3-3.3-8.3-3.3L194.7,18.4z M194.7,18.4"/>
	</g>
	<path class="st0" d="M77.8,0.4l-4,16.7c-0.3,1.4-0.4,2.5-0.4,2.5h-0.1c0,0-0.1-1.2-0.4-2.5L68.6,0.4h-3.8l-4.4,16.7
		C60,18.5,60,19.7,60,19.7h-0.1c0,0-0.1-1.2-0.4-2.5L56.6,4.6l-2.1,9.1l2.7,10.8h5.1L66,10.3c0.4-1.6,0.6-3.2,0.6-3.2h0.1
		c0,0,0.2,1.6,0.6,3.2L71,24.6h5.1l6.2-24.2L77.8,0.4z M77.8,0.4"/>
	<path class="st0" d="M105.1,0.4l-4,16.7c-0.3,1.4-0.4,2.5-0.4,2.5h-0.1c0,0-0.1-1.2-0.4-2.5L95.9,0.4h-3.8l-4.4,16.7
		c-0.4,1.4-0.4,2.5-0.4,2.5h-0.1c0,0-0.1-1.2-0.4-2.5L83.9,4.6l-2.1,9.1l2.7,10.9h5.1l3.7-14.3c0.4-1.6,0.6-3.2,0.6-3.2H94
		c0,0,0.2,1.6,0.6,3.2l3.7,14.3h5.1l6.2-24.2H105.1z M105.1,0.4"/>
	<path class="st0" d="M15.1,18.4H6.6l-2,6.2H0L8.5,0.4h4.6l8.5,24.2h-4.5L15.1,18.4z M10.8,4.6c0,0-0.5,2.4-1,3.7l-2.1,6.5H14
		l-2.2-6.5C11.4,7,10.9,4.6,10.8,4.6L10.8,4.6z M10.8,4.6"/>
	<path class="st0" d="M45.6,17.1c0.4,1.4,0.4,2.6,0.4,2.6h0.1c0,0,0.1-1.2,0.4-2.6l4-16.7H55l-6.2,24.2h-5.1L40,10.3
		c-0.4-1.6-0.6-3.2-0.6-3.2h-0.1c0,0-0.2,1.6-0.6,3.2L35,24.6h-5.1L23.9,0.4h4.5l3.8,16.7c0.3,1.4,0.4,2.5,0.4,2.5h0.1
		c0,0,0.1-1.2,0.4-2.5l4.4-16.7h3.8L45.6,17.1z M45.6,17.1"/>
</g>
</svg>
