<!-- Generator: Adobe Illustrator 22.1.0, SVG Export Plug-In  -->
<svg version="1.1"
	 xmlns="http://www.w3.org/2000/svg" xmlns:xlink="http://www.w3.org/1999/xlink" xmlns:a="http://ns.adobe.com/AdobeSVGViewerExtensions/3.0/"
	 x="0px" y="0px" width="416.6px" height="148.2px" viewBox="0 0 416.6 148.2"
	 style="overflow:scroll;enable-background:new 0 0 416.6 148.2;" xml:space="preserve">
<defs>
</defs>
<g fill="#fff">
	<g>
		<path d="M124,98.4c-8.8-5.5-13.1-17.1-11-29.5c2.6-14.9,13.5-23.8,29.1-24.1C130.7,18.4,104.6,0,74.1,0C33.2,0,0,33.2,0,74.1
			c0,40.9,33.2,74.1,74.1,74.1c30.9,0,57.3-18.9,68.4-45.7c-0.8,0.1-1.7,0.1-2.5,0.1C134,102.6,128.3,101.1,124,98.4z M52,92.1
			c-4.6-2.3-7.7-7-7.7-12.4c0-7.6,13.8-29.3,13.8-29.3s1,1.6,2.5,4c6,11.4,9.8,20.9,9.8,24.9c0,7.8-5.8,14.1-12.8,14.1
			C55.6,93.5,53.7,93,52,92.1L52,92.1z M74.1,108.9c-8.7,0-16.2-4.8-20.1-11.9c1.1,0.3,2.3,0.4,3.5,0.4c9.3,0,16.8-8.1,16.8-18.1
			c0-6.4-6.5-19.6-9.8-25.9c5.1-9.1,9.7-16.3,9.7-16.3s23,36,23,48.7C97.1,98.6,86.8,108.9,74.1,108.9z"/>
		<path d="M408.2,56.7c-2.5-2.1-3.1-3.7-1.8-6.8l2.2-5.5l-10.5,0l-1.1,4c-1.6,5.9-5.1,10.7-10.2,14.2c-1.3,0.9-2,1.2-2.9-0.6
			c-3-6-8.3-8.8-14.7-9.9c-6.8-1.1-22.5-0.6-22.5-0.6l-0.5,2.7c-0.9,4.1-2.7,7.7-6.5,10c-1.1,0.7-2,1.1-2.7,0.4
			c-0.3-0.3-0.6-0.8-0.9-1.6c-5.6-15.9-25.9-16.2-34.4-8.3c-7.4,6.9-8.7,15.7-7.1,25.1c1.1,6.1,3.9,11.2,9.5,14.5
			c14.5,8.5,32-0.5,33.6-17.2c0.1-1.3-0.4-2.9,1.6-3.4c2.4-0.6,4.4-2,6.7-3.3c0.8,1.4,0.5,2.6,0.5,3.8c0,13.9,0,33.8,0,47.7l10.7,0
			l0-26.5c0,0,1.6,0.3,2.6,0.6c4.8,1.2,9.6,1,14.1-0.8c8.6-3.4,11.5-10.7,12.1-19.2c0.1-2,0.6-3.2,2.5-4c3.6-1.5,6.7-3.9,9.1-6.9
			c1.6-2.2,2.9-1.4,4.2-0.1c3.8,3.9,4.4,8.6,3.4,13.7c-1.3,6.7-6.7,10.4-13.3,9.4l-4.1-0.6l0,8.7l2.3,0.6c8.3,2.2,18.6-1.7,22.9-9
			C419.1,77.4,417.2,64.5,408.2,56.7z M325.8,79.5c-1,3.2-2.4,6.1-5.5,7.8c-5,2.6-11.1,0.2-13.3-5.2c-1.1-2.7-1.8-5.6-1.6-8.1
			c0-4.2,0.7-7.9,2.9-11c2.3-3.2,5.5-4.1,9.2-3.7c3.5,0.4,5.6,2.5,7.1,5.5l1,2.3l-2.2,0h-2.9v8.8l2.7,0c0.6,0,3.5,0,3.5,0
			C326.7,76.7,325.8,79.5,325.8,79.5z M374.4,78c-0.9,6.4-7.8,12.5-15.1,8.3c-1.4-0.8-2-0.6-2-2.3V60.5l2.6,0
			c5.1,0.1,10,0.5,13.2,5.4c-1.6,1.2-4.2,1.3-4.2,1.3l0,8.2l3.3-0.1c1,0,2.6-0.1,2.6-0.1L374.4,78z"/>
		<path d="M269.5,59l0-7.6l-10.4,0l0,26.8c0,4.2-3.6,7.8-7.4,7.8c-3.6,0-5.1-2.1-5.1-7.5c0-0.8,0-1.6,0-2.5V23.5l-15.8,0l0,8.9
			l3.8,0c1.4,0.2,1.2,1.9,1.3,2.9c0,3.9-0.1,7.7,0.1,11.6c0.1,2.4-0.8,3-3,2.9c-3.6-0.1-7.2,0.5-10.7,1.7c-12.2,4.4-19,17.5-16,31
			c1.4,6.5,4.3,12.1,11.1,14c7.9,2.2,15.1,0.8,20.2-6.4c4.5,6.5,8.7,8.1,15.2,6.3c2.2-0.6,6.4-2.5,6.4-2.5l0,2.9l11.2,0l0-20.9
			c0-5.1,2.2-10,6.8-13.1c1.1-0.8,1.8-1.3,3-0.9c1.4,0.5,1.3,3.1,1.3,3.1l0,3.6l9.2,0V53.3l0-3.1l-3,0C280.5,50.1,269.5,59,269.5,59
			z M235.3,79.3c-1.5,4.7-5.8,7.7-10.6,7.3c-4.3-0.3-6.9-3.3-7.5-8.6c-1-8.1,2.4-15,8.7-17.9c2.7-1.2,5.4-1,8.2-0.9
			c1.6,0,1.9,1,1.8,2.4c0,2.4,0,4.9,0,8C235.7,72.4,236.4,75.9,235.3,79.3z"/>
		<path d="M189.6,52.2c-7.8-3.7-15.7-3.6-23,1.3c-7.7,5.2-10.1,13.3-9.5,22.1c0.1,1.8,0.6,4.2,0.6,4.2s-2.7,2.7-3.8,3.8
			c-2.8,2.7-6.2,4.1-10,4.5c-7,0.8-12.7-2.7-14.5-8.9c-2.1-7.4,1-16,7-18.8c1.3-0.6,2.6-0.9,3.9-1.1c0,0-0.1,0-0.1,0
			c0,0,0.1,0,0.2,0c0,0-0.1,0-0.1,0c0.6,0,3.9,0.1,3.9,3.6l0,4.4l9.3,0V50.8c0,0-3.4-0.4-7.1-0.8c-14.2-1.2-25.7,4.8-28.3,19.7
			c-1.8,10.2,1.6,19.9,8.6,24.3c9.2,5.8,24.6,4.1,32.3-3.5c0.7-0.7,1.8-1.7,1.8-1.7s0.9,0.9,1.6,1.6c6.7,7.5,18.4,9.2,27.3,4.4
			c8.2-4.5,12.6-15,10.8-26.1C199.4,61.6,196.4,55.5,189.6,52.2z M187.5,82.8c-1.6,3.5-4.4,5.4-8.2,5.5c-3.9,0.1-7-1.6-8.7-5.2
			c-3-6.4-3.1-12.9,0.2-19.1c1.7-3.3,4.3-4.6,8-4.7c4.1-0.3,7,1.7,8.7,5.3C190.3,70.5,190.2,76.7,187.5,82.8z"/>
	</g>
</g>
</svg>
